<svg viewBox="0 0 96 96" xmlns="http://www.w3.org/2000/svg" xmlns:xlink="http://www.w3.org/1999/xlink" id="Icons_Toothpaste" overflow="hidden"><g><path d="M13.3 61.2 34.9 82.8C35.8 83.7 35.8 85 34.9 85.9L33.4 87.4C32.5 88.3 31.2 88.3 30.3 87.4L8.6 65.8C7.7 64.9 7.7 63.6 8.6 62.7L10.1 61.2C11 60.3 12.4 60.3 13.3 61.2Z"/><path d="M43.3 52.7C40.8 50.2 42.1 44.6 46.4 40.4 50.7 36.2 56.2 34.8 58.7 37.3 61.3 39.8 59.9 45.4 55.6 49.6 51.3 53.8 45.9 55.2 43.3 52.7ZM67.8 12.5 16.5 58.3 37.7 79.5 83.5 28.2 67.8 12.5Z"/><path d="M87.5 14.9C88.2 14 88.1 12.8 87.3 12L84 8.6C83.2 7.8 81.9 7.7 81.1 8.5L75 13.5 82.5 21 87.5 14.9Z"/></g></svg>